<?xml version="1.0" encoding="UTF-8"?>
<!DOCTYPE svg PUBLIC "-//W3C//DTD SVG 1.1//EN" "http://www.w3.org/Graphics/SVG/1.1/DTD/svg11.dtd">
<svg xmlns="http://www.w3.org/2000/svg" version="1.1" width="500px" height="200px" style="shape-rendering:geometricPrecision; text-rendering:geometricPrecision; image-rendering:optimizeQuality; fill-rule:evenodd; clip-rule:evenodd" xmlns:xlink="http://www.w3.org/1999/xlink">
<g><path style="opacity:0.925" fill="#fefffe" d="M 175.5,29.5 C 181.509,29.3338 187.509,29.5005 193.5,30C 194.872,30.4017 196.205,30.9017 197.5,31.5C 198.386,40.8917 198.886,50.225 199,59.5C 192.785,52.8459 185.785,51.8459 178,56.5C 171.074,68.625 170.741,80.9584 177,93.5C 184.732,99.2216 191.899,98.555 198.5,91.5C 198.689,94.9851 198.689,98.6518 198.5,102.5C 182.781,102.404 167.114,101.57 151.5,100C 143.972,81.2274 145.139,63.0607 155,45.5C 160.502,38.3472 167.336,33.0139 175.5,29.5 Z"/></g>
<g><path style="opacity:0.929" fill="#fefffe" d="M 298.5,29.5 C 307.273,28.4999 315.606,29.8333 323.5,33.5C 324.833,43.1667 324.833,52.8333 323.5,62.5C 319.908,55.3869 314.241,52.5536 306.5,54C 304.022,55.938 303.855,58.1047 306,60.5C 314.049,65.5484 320.382,72.215 325,80.5C 328.639,89.5947 328.139,98.4281 323.5,107C 308.493,106.972 293.493,106.472 278.5,105.5C 278.171,99.7945 278.505,94.1278 279.5,88.5C 283.99,95.4117 290.323,98.5784 298.5,98C 301.928,95.8548 302.428,93.0215 300,89.5C 293.041,84.8751 287.041,79.2085 282,72.5C 276.363,57.8734 279.196,45.0401 290.5,34C 293.391,32.7258 296.058,31.2258 298.5,29.5 Z"/></g>
<g><path style="opacity:0.928" fill="#fefffe" d="M 8.5,30.5 C 16.8333,30.5 25.1667,30.5 33.5,30.5C 33.5,40.5 33.5,50.5 33.5,60.5C 36.8333,60.5 40.1667,60.5 43.5,60.5C 43.5,50.5 43.5,40.5 43.5,30.5C 52.0851,30.1834 60.5851,30.5168 69,31.5C 69.5,53.4975 69.6666,75.4975 69.5,97.5C 60.8184,97.4795 52.1517,97.1461 43.5,96.5C 43.5,93.1667 43.5,89.8333 43.5,86.5C 40.1667,86.5 36.8333,86.5 33.5,86.5C 33.5,89.8333 33.5,93.1667 33.5,96.5C 25.2004,95.6287 16.8671,95.2953 8.5,95.5C 8.5,73.8333 8.5,52.1667 8.5,30.5 Z"/></g>
<g><path style="opacity:0.928" fill="#fefffe" d="M 95.5,30.5 C 105.5,30.5 115.5,30.5 125.5,30.5C 130.116,53.581 135.116,76.581 140.5,99.5C 138.333,99.8333 136.167,100.167 134,100.5C 116.508,99.5221 99.0078,98.6887 81.5,98C 80.376,97.7508 79.376,97.2508 78.5,96.5C 84.1716,74.4655 89.8383,52.4655 95.5,30.5 Z M 109.5,60.5 C 111.095,69.665 112.428,78.9984 113.5,88.5C 110.482,88.6646 107.482,88.498 104.5,88C 106.767,78.9728 108.434,69.8061 109.5,60.5 Z"/></g>
<g><path style="opacity:0.921" fill="#fefffe" d="M 209.5,30.5 C 217.833,30.5 226.167,30.5 234.5,30.5C 234.333,41.1719 234.5,51.8385 235,62.5C 238.538,52.0509 242.372,41.7176 246.5,31.5C 255.475,30.5018 264.475,30.1685 273.5,30.5C 267.555,45.3349 261.222,60.0016 254.5,74.5C 259.148,84.4642 263.814,94.4642 268.5,104.5C 259.753,105.155 250.753,105.155 241.5,104.5C 239.641,98.0899 237.474,91.7566 235,85.5C 234.812,91.7482 234.312,97.9149 233.5,104C 225.664,103.88 217.83,103.38 210,102.5C 209.5,78.5023 209.333,54.5023 209.5,30.5 Z"/></g>
<g><path style="opacity:0.936" fill="#fefffe" d="M 349.5,30.5 C 359.749,30.1806 369.916,30.5139 380,31.5C 385.822,57.7747 391.322,84.108 396.5,110.5C 375.647,109.596 354.813,108.596 334,107.5C 333.228,107.645 332.561,107.978 332,108.5C 336.871,82.3423 342.705,56.3423 349.5,30.5 Z M 363.5,60.5 C 365.394,69.5346 367.061,78.7012 368.5,88C 365.446,88.8214 362.446,88.6548 359.5,87.5C 361.392,78.5888 362.725,69.5888 363.5,60.5 Z"/></g>
<g><path style="opacity:0.927" fill="#fefffe" d="M 396.5,30.5 C 405.5,30.5 414.5,30.5 423.5,30.5C 425.094,46.9198 427.261,63.2531 430,79.5C 431.951,63.1276 434.118,46.7943 436.5,30.5C 444.087,30.1858 451.587,30.5192 459,31.5C 461.668,47.5081 464.334,63.5081 467,79.5C 469.121,63.1505 471.288,46.8172 473.5,30.5C 481.833,30.5 490.167,30.5 498.5,30.5C 493.349,57.9211 487.682,85.2545 481.5,112.5C 472.506,113.553 463.506,113.553 454.5,112.5C 452.288,98.8502 450.121,85.1835 448,71.5C 446.377,85.4497 444.877,99.1163 443.5,112.5C 433.933,112.038 424.433,111.371 415,110.5C 408.64,83.8675 402.474,57.2009 396.5,30.5 Z"/></g>
<g><path style="opacity:0.912" fill="#fefffe" d="M 0.5,96.5 C 9.20005,96.2895 17.8667,96.6228 26.5,97.5C 26.5,105.833 26.5,114.167 26.5,122.5C 17.8333,122.5 9.16667,122.5 0.5,122.5C 0.5,113.833 0.5,105.167 0.5,96.5 Z"/></g>
<g><path style="opacity:0.904" fill="#fefffe" d="M 34.5,97.5 C 43.1622,97.9282 51.8288,98.2616 60.5,98.5C 60.5,106.5 60.5,114.5 60.5,122.5C 51.8333,122.5 43.1667,122.5 34.5,122.5C 34.5,114.167 34.5,105.833 34.5,97.5 Z"/></g>
<g><path style="opacity:0.915" fill="#fefffe" d="M 71.5,98.5 C 91.8163,99.6442 112.15,100.644 132.5,101.5C 133.372,108.524 134.372,115.524 135.5,122.5C 126.833,122.5 118.167,122.5 109.5,122.5C 109.406,118.864 108.739,115.364 107.5,112C 102.511,111.501 97.5111,111.334 92.5,111.5C 92.2756,115.179 91.9422,118.846 91.5,122.5C 82.8333,122.5 74.1667,122.5 65.5,122.5C 66.8691,114.315 68.8691,106.315 71.5,98.5 Z"/></g>
<g><path style="opacity:0.91" fill="#fefffe" d="M 143.5,101.5 C 159.154,102.398 174.821,103.065 190.5,103.5C 190.5,109.5 190.5,115.5 190.5,121.5C 173.862,128.111 159.696,124.778 148,111.5C 145.676,108.52 144.176,105.187 143.5,101.5 Z"/></g>
<g><path style="opacity:0.898" fill="#fefffe" d="M 200.5,104.5 C 209.167,104.5 217.833,104.5 226.5,104.5C 226.5,110.5 226.5,116.5 226.5,122.5C 217.833,122.5 209.167,122.5 200.5,122.5C 200.5,116.5 200.5,110.5 200.5,104.5 Z"/></g>
<g><path style="opacity:0.905" fill="#fefffe" d="M 233.5,105.5 C 242.736,105.407 251.736,105.907 260.5,107C 263.119,111.686 265.452,116.52 267.5,121.5C 258.184,122.665 248.851,122.832 239.5,122C 237.002,116.673 235.002,111.173 233.5,105.5 Z"/></g>
<g><path style="opacity:0.887" fill="#fefffe" d="M 271.5,106.5 C 286.221,106.882 300.888,107.882 315.5,109.5C 309.461,119.274 300.628,124.274 289,124.5C 283.088,123.876 277.254,122.876 271.5,121.5C 271.5,116.5 271.5,111.5 271.5,106.5 Z"/></g>
<g><path style="opacity:0.886" fill="#fefffe" d="M 322.5,108.5 C 331.146,109.253 339.812,109.587 348.5,109.5C 348.091,113.876 347.425,118.21 346.5,122.5C 337.5,122.5 328.5,122.5 319.5,122.5C 320.185,117.761 321.185,113.094 322.5,108.5 Z"/></g>
<g><path style="opacity:0.867" fill="#fefffe" d="M 361.5,110.5 C 368.508,110.334 375.508,110.5 382.5,111C 384.577,111.192 386.577,111.692 388.5,112.5C 389.346,115.548 390.346,118.548 391.5,121.5C 382.19,122.498 372.857,122.832 363.5,122.5C 362.962,118.476 362.295,114.476 361.5,110.5 Z"/></g>
<g><path style="opacity:0.867" fill="#fefffe" d="M 406.5,112.5 C 415.833,112.5 425.167,112.5 434.5,112.5C 434.74,115.579 434.407,118.579 433.5,121.5C 425.167,122.833 416.833,122.833 408.5,121.5C 407.577,118.553 406.911,115.553 406.5,112.5 Z"/></g>
<g><path style="opacity:0.852" fill="#fefffe" d="M 446.5,113.5 C 455.494,113.966 464.494,114.3 473.5,114.5C 473.425,117.206 473.092,119.873 472.5,122.5C 463.833,122.5 455.167,122.5 446.5,122.5C 446.5,119.5 446.5,116.5 446.5,113.5 Z"/></g>
<g><path style="opacity:0.833" fill="#fefffe" d="M 25.5,134.5 C 35.7254,134.095 42.0588,138.761 44.5,148.5C 41.7531,148.813 39.0865,148.48 36.5,147.5C 32.8967,142.395 28.23,141.228 22.5,144C 20.1119,146.306 19.1119,149.139 19.5,152.5C 20.5425,161.111 25.2092,163.945 33.5,161C 34.7433,159.846 35.7433,158.512 36.5,157C 33.1832,156.502 29.8499,156.335 26.5,156.5C 26.5,154.167 26.5,151.833 26.5,149.5C 32.5,149.5 38.5,149.5 44.5,149.5C 44.8795,165.326 37.2129,171.826 21.5,169C 12.7145,163.924 9.54784,156.424 12,146.5C 14.4043,140.061 18.9043,136.061 25.5,134.5 Z"/></g>
<g><path style="opacity:0.837" fill="#fefffe" d="M 468.5,134.5 C 478.725,134.095 485.059,138.761 487.5,148.5C 485.143,148.663 482.81,148.497 480.5,148C 476.609,142.518 471.609,141.185 465.5,144C 460.01,150.016 460.343,155.682 466.5,161C 471.724,163.111 476.057,161.944 479.5,157.5C 476.232,156.513 472.898,156.18 469.5,156.5C 469.5,154.167 469.5,151.833 469.5,149.5C 475.833,149.5 482.167,149.5 488.5,149.5C 487.966,165.261 479.966,171.761 464.5,169C 455.715,163.924 452.548,156.424 455,146.5C 457.806,140.523 462.306,136.523 468.5,134.5 Z"/></g>
<g><path style="opacity:0.832" fill="#fefffe" d="M 113.5,135.5 C 116.119,135.232 118.619,135.565 121,136.5C 124.889,147.278 129.056,157.945 133.5,168.5C 130.572,169.484 127.572,169.817 124.5,169.5C 123.875,162.207 119.875,159.707 112.5,162C 111.5,164.333 110.5,166.667 109.5,169C 106.854,169.497 104.187,169.664 101.5,169.5C 105.493,158.177 109.493,146.844 113.5,135.5 Z M 116.5,148.5 C 117.601,149.848 118.601,151.348 119.5,153C 118.056,153.781 116.723,153.614 115.5,152.5C 116.246,151.264 116.579,149.93 116.5,148.5 Z"/></g>
<g><path style="opacity:0.78" fill="#fefffe" d="M 266.5,135.5 C 269.167,135.5 271.833,135.5 274.5,135.5C 274.5,146.833 274.5,158.167 274.5,169.5C 271.833,169.5 269.167,169.5 266.5,169.5C 266.5,158.167 266.5,146.833 266.5,135.5 Z"/></g>
<g><path style="opacity:0.811" fill="#fefffe" d="M 359.5,135.5 C 362.187,135.336 364.854,135.503 367.5,136C 371.79,142.08 375.957,148.247 380,154.5C 380.5,148.175 380.666,141.842 380.5,135.5C 383.119,135.232 385.619,135.565 388,136.5C 388.5,147.495 388.667,158.495 388.5,169.5C 385.813,169.664 383.146,169.497 380.5,169C 376.21,162.92 372.043,156.753 368,150.5C 367.5,156.825 367.334,163.158 367.5,169.5C 364.833,169.5 362.167,169.5 359.5,169.5C 359.5,158.167 359.5,146.833 359.5,135.5 Z"/></g>
<g><path style="opacity:0.838" fill="#fefffe" d="M 200.5,136.5 C 203.247,136.187 205.914,136.52 208.5,137.5C 210.765,143.128 212.931,148.794 215,154.5C 216.803,148.758 218.803,143.091 221,137.5C 223.719,136.556 226.552,136.223 229.5,136.5C 230.208,147.497 230.875,158.497 231.5,169.5C 228.833,169.5 226.167,169.5 223.5,169.5C 223.494,164.785 222.994,160.118 222,155.5C 220.389,160.165 218.889,164.832 217.5,169.5C 215.208,169.756 213.041,169.423 211,168.5C 209.667,164.5 208.333,160.5 207,156.5C 205.805,160.751 205.305,165.085 205.5,169.5C 202.833,169.5 200.167,169.5 197.5,169.5C 198.266,158.432 199.266,147.432 200.5,136.5 Z"/></g>
</svg>
