<?xml version="1.0" encoding="UTF-8"?>
<!DOCTYPE svg PUBLIC "-//W3C//DTD SVG 1.1//EN" "http://www.w3.org/Graphics/SVG/1.1/DTD/svg11.dtd">
<svg xmlns="http://www.w3.org/2000/svg" version="1.1" width="500px" height="200px" style="shape-rendering:geometricPrecision; text-rendering:geometricPrecision; image-rendering:optimizeQuality; fill-rule:evenodd; clip-rule:evenodd" xmlns:xlink="http://www.w3.org/1999/xlink">
<g><path style="opacity:0.977" fill="#040101" d="M 467.5,62.5 C 464.444,74.368 461.11,86.368 457.5,98.5C 455.723,101.505 454.723,104.838 454.5,108.5C 451.053,117.857 448.386,127.524 446.5,137.5C 438.227,153.935 425.227,164.768 407.5,170C 358.5,170.667 309.5,170.667 260.5,170C 250.974,165.808 244.141,158.975 240,149.5C 238.844,145.582 238.344,141.582 238.5,137.5C 239.323,134.023 239.823,130.356 240,126.5C 246.819,105.213 253.319,83.8797 259.5,62.5C 266.939,46.2355 279.272,35.4021 296.5,30C 345.5,29.3333 394.5,29.3333 443.5,30C 454.359,34.1924 461.859,41.6924 466,52.5C 467.043,55.7568 467.543,59.0901 467.5,62.5 Z"/></g>
<g><path style="opacity:1" fill="#7d1f1d" d="M 365.5,41.5 C 343.474,41.2101 321.474,41.5435 299.5,42.5C 300.263,41.7321 301.263,41.2321 302.5,41C 323.671,40.1707 344.671,40.3373 365.5,41.5 Z"/></g>
<g><path style="opacity:1" fill="#eb3b37" d="M 365.5,41.5 C 364.699,43.0418 364.366,44.7085 364.5,46.5C 362.39,50.5021 361.057,54.8354 360.5,59.5C 358.742,62.8544 357.742,66.521 357.5,70.5C 338.167,70.5 318.833,70.5 299.5,70.5C 293.191,89.7364 287.191,109.07 281.5,128.5C 290.658,129.822 299.658,129.822 308.5,128.5C 310.99,125.374 312.323,121.708 312.5,117.5C 312.539,116.417 312.873,115.417 313.5,114.5C 309.167,113.833 304.833,113.167 300.5,112.5C 302.838,105.154 305.171,97.821 307.5,90.5C 321.837,90.3334 336.171,90.5001 350.5,91C 349.663,92.0113 349.33,93.1779 349.5,94.5C 348.915,99.7833 347.582,104.783 345.5,109.5C 343.723,112.505 342.723,115.838 342.5,119.5C 335.597,149.71 316.597,163.377 285.5,160.5C 252.305,163.455 241.972,149.455 254.5,118.5C 256.277,115.495 257.277,112.162 257.5,108.5C 259.277,105.495 260.277,102.162 260.5,98.5C 263.27,88.8193 266.103,79.1526 269,69.5C 274.986,55.6751 285.153,46.6751 299.5,42.5C 321.474,41.5435 343.474,41.2101 365.5,41.5 Z"/></g>
<g><path style="opacity:1" fill="#ea3b37" d="M 452.5,48.5 C 454.272,52.7326 455.272,57.2326 455.5,62C 455.321,65.8576 454.987,69.6909 454.5,73.5C 453.076,75.5145 452.41,77.8478 452.5,80.5C 450.723,83.5046 449.723,86.8379 449.5,90.5C 445.363,103.304 441.53,116.304 438,129.5C 430.673,146.491 417.84,156.324 399.5,159C 387.167,159.667 374.833,159.667 362.5,159C 352.909,154.97 347.909,147.804 347.5,137.5C 351.839,118.492 357.172,99.8249 363.5,81.5C 364.924,79.4855 365.59,77.1522 365.5,74.5C 367.074,72.8984 367.741,70.8984 367.5,68.5C 373.386,53.7811 384.053,44.6144 399.5,41C 413.512,40.1672 427.512,40.3339 441.5,41.5C 445.985,42.6703 449.651,45.0037 452.5,48.5 Z"/></g>
<g><path style="opacity:1" fill="#471413" d="M 364.5,46.5 C 363.943,51.1646 362.61,55.4979 360.5,59.5C 361.057,54.8354 362.39,50.5021 364.5,46.5 Z"/></g>
<g><path style="opacity:1" fill="#aa2b28" d="M 452.5,48.5 C 455.912,52.0567 457.579,56.3901 457.5,61.5C 457.414,65.8452 456.414,69.8452 454.5,73.5C 454.987,69.6909 455.321,65.8576 455.5,62C 455.272,57.2326 454.272,52.7326 452.5,48.5 Z"/></g>
<g><path style="opacity:0.936" fill="#0c8ac3" d="M 259.5,62.5 C 253.319,83.8797 246.819,105.213 240,126.5C 239.823,130.356 239.323,134.023 238.5,137.5C 163.166,137.667 87.8326,137.5 12.5,137C 6.8584,135.512 2.52507,132.345 -0.5,127.5C -0.5,121.167 -0.5,114.833 -0.5,108.5C 3.53544,97.2378 7.70211,85.9045 12,74.5C 16.9085,68.5817 23.0752,64.7484 30.5,63C 106.833,62.5 183.166,62.3333 259.5,62.5 Z"/></g>
<g><path style="opacity:0.946" fill="#0188c1" d="M 467.5,62.5 C 474.589,62.1156 481.589,62.6156 488.5,64C 492.975,66.3138 496.642,69.4804 499.5,73.5C 499.5,79.5 499.5,85.5 499.5,91.5C 497.767,92.0076 497.434,92.841 498.5,94C 494.987,102.197 492.153,110.697 490,119.5C 484.649,128.599 476.816,134.433 466.5,137C 459.842,137.5 453.175,137.666 446.5,137.5C 448.386,127.524 451.053,117.857 454.5,108.5C 456.277,105.495 457.277,102.162 457.5,98.5C 461.11,86.368 464.444,74.368 467.5,62.5 Z"/></g>
<g><path style="opacity:1" fill="#591615" d="M 396.5,71.5 C 406.008,70.1775 415.675,70.1775 425.5,71.5C 425.376,72.1067 425.043,72.44 424.5,72.5C 415.348,71.5064 406.015,71.1731 396.5,71.5 Z"/></g>
<g><path style="opacity:1" fill="#030000" d="M 396.5,71.5 C 406.015,71.1731 415.348,71.5064 424.5,72.5C 423.5,75.8333 422.5,79.1667 421.5,82.5C 420.076,84.5145 419.41,86.8478 419.5,89.5C 417.723,92.5046 416.723,95.8379 416.5,99.5C 415.076,101.515 414.41,103.848 414.5,106.5C 411.791,113.63 409.458,120.964 407.5,128.5C 398.161,128.666 388.827,128.5 379.5,128C 380.38,126.644 380.714,125.144 380.5,123.5C 382.277,120.495 383.277,117.162 383.5,113.5C 388.093,99.4933 392.426,85.4933 396.5,71.5 Z"/></g>
<g><path style="opacity:1" fill="#8b2321" d="M 367.5,68.5 C 367.741,70.8984 367.074,72.8984 365.5,74.5C 365.259,72.1016 365.926,70.1016 367.5,68.5 Z"/></g>
<g><path style="opacity:1" fill="#5a1716" d="M 454.5,73.5 C 454.59,76.1522 453.924,78.4855 452.5,80.5C 452.41,77.8478 453.076,75.5145 454.5,73.5 Z"/></g>
<g><path style="opacity:1" fill="#8e2422" d="M 365.5,74.5 C 365.59,77.1522 364.924,79.4855 363.5,81.5C 363.41,78.8478 364.076,76.5145 365.5,74.5 Z"/></g>
<g><path style="opacity:1" fill="#f7fbfd" d="M 36.5,78.5 C 44.84,78.3336 53.1733,78.5003 61.5,79C 64.7713,79.9604 66.4379,82.1271 66.5,85.5C 65.7021,93.3972 63.0354,100.564 58.5,107C 51.9094,110.212 44.9094,111.379 37.5,110.5C 36.8007,114.096 35.8007,117.596 34.5,121C 30.8484,121.499 27.1817,121.665 23.5,121.5C 28.0155,107.282 32.3488,92.9485 36.5,78.5 Z"/></g>
<g><path style="opacity:1" fill="#f7fbfd" d="M 93.5,120.5 C 83.1667,120.5 72.8333,120.5 62.5,120.5C 62.5,119.5 62.5,118.5 62.5,117.5C 66.6335,104.633 70.3001,91.633 73.5,78.5C 77.5546,78.1758 81.5546,78.5091 85.5,79.5C 81.3303,89.1664 78.3303,99.1664 76.5,109.5C 79.8984,109.82 83.2317,109.487 86.5,108.5C 87.5805,105.668 88.5805,102.835 89.5,100C 93.2113,99.1747 96.878,99.3414 100.5,100.5C 97.7788,106.995 95.4455,113.662 93.5,120.5 Z"/></g>
<g><path style="opacity:1" fill="#f8fbfd" d="M 120.5,78.5 C 126.176,78.3339 131.843,78.5006 137.5,79C 142.038,80.7129 143.538,83.8795 142,88.5C 138.72,99.5012 135.554,110.501 132.5,121.5C 128.774,121.823 125.107,121.489 121.5,120.5C 122.436,116.691 123.77,113.025 125.5,109.5C 121.62,108.205 117.786,108.205 114,109.5C 112.521,113.417 111.354,117.417 110.5,121.5C 106.774,121.823 103.107,121.489 99.5,120.5C 102.968,110.263 106.135,99.9294 109,89.5C 111.437,84.2262 115.271,80.5595 120.5,78.5 Z"/></g>
<g><path style="opacity:1" fill="#f6fafc" d="M 156.5,96.5 C 155.566,97.5676 155.232,98.901 155.5,100.5C 159.649,101.08 163.316,100.414 166.5,98.5C 168.644,92.2721 170.644,85.9388 172.5,79.5C 175.768,78.513 179.102,78.1796 182.5,78.5C 180.44,87.738 177.607,96.738 174,105.5C 170.386,108.261 166.386,110.261 162,111.5C 161.39,114.827 160.89,118.161 160.5,121.5C 156.833,121.5 153.167,121.5 149.5,121.5C 149.961,117.788 150.627,114.121 151.5,110.5C 146.554,110.221 143.887,107.554 143.5,102.5C 145.45,94.5302 147.783,86.6968 150.5,79C 154.152,78.5014 157.818,78.3347 161.5,78.5C 159.836,84.488 158.169,90.488 156.5,96.5 Z"/></g>
<g><path style="opacity:1" fill="#f3f9fc" d="M 188.5,78.5 C 192.884,78.1744 197.217,78.5078 201.5,79.5C 200.059,83.3234 198.726,87.1567 197.5,91C 193.848,91.4986 190.182,91.6653 186.5,91.5C 187.007,87.1405 187.673,82.8072 188.5,78.5 Z"/></g>
<g><path style="opacity:1" fill="#4d1514" d="M 452.5,80.5 C 452.277,84.1621 451.277,87.4954 449.5,90.5C 449.723,86.8379 450.723,83.5046 452.5,80.5 Z"/></g>
<g><path style="opacity:1" fill="#85221f" d="M 421.5,82.5 C 421.59,85.1522 420.924,87.4855 419.5,89.5C 419.41,86.8478 420.076,84.5145 421.5,82.5 Z"/></g>
<g><path style="opacity:1" fill="#87221f" d="M 307.5,90.5 C 321.99,89.504 336.657,89.1707 351.5,89.5C 351.598,91.5529 350.931,93.2196 349.5,94.5C 349.33,93.1779 349.663,92.0113 350.5,91C 336.171,90.5001 321.837,90.3334 307.5,90.5 Z"/></g>
<g><path style="opacity:1" fill="#f7fbfd" d="M 203.5,118.5 C 202.596,119.209 202.263,120.209 202.5,121.5C 198.833,121.5 195.167,121.5 191.5,121.5C 193.438,112.521 196.271,103.854 200,95.5C 204.353,90.0778 210.019,88.0778 217,89.5C 227.57,87.0753 231.904,91.0753 230,101.5C 228.157,108.513 226.323,115.513 224.5,122.5C 220.5,122.5 216.5,122.5 212.5,122.5C 214.5,115.167 216.5,107.833 218.5,100.5C 215.167,100.5 211.833,100.5 208.5,100.5C 206.429,106.38 204.763,112.38 203.5,118.5 Z"/></g>
<g><path style="opacity:1" fill="#2d92c8" d="M 43.5,89.5 C 47.1667,89.5 50.8333,89.5 54.5,89.5C 53.8333,93.1667 53.1667,96.8333 52.5,100.5C 48.8333,100.5 45.1667,100.5 41.5,100.5C 42.0078,96.8026 42.6745,93.1359 43.5,89.5 Z"/></g>
<g><path style="opacity:1" fill="#2b92c8" d="M 119.5,89.5 C 123.226,89.1774 126.893,89.5108 130.5,90.5C 129.484,93.8548 128.484,97.1881 127.5,100.5C 124.167,100.5 120.833,100.5 117.5,100.5C 118.167,96.8333 118.833,93.1667 119.5,89.5 Z"/></g>
<g><path style="opacity:1" fill="#8c2321" d="M 419.5,89.5 C 419.277,93.1621 418.277,96.4954 416.5,99.5C 416.723,95.8379 417.723,92.5046 419.5,89.5 Z"/></g>
<g><path style="opacity:1" fill="#8ec9e3" d="M 156.5,96.5 C 156.5,97.5 156.5,98.5 156.5,99.5C 159.939,99.7471 163.272,99.4137 166.5,98.5C 163.316,100.414 159.649,101.08 155.5,100.5C 155.232,98.901 155.566,97.5676 156.5,96.5 Z"/></g>
<g><path style="opacity:1" fill="#8c2321" d="M 260.5,98.5 C 260.277,102.162 259.277,105.495 257.5,108.5C 257.723,104.838 258.723,101.505 260.5,98.5 Z"/></g>
<g><path style="opacity:1" fill="#014968" d="M 457.5,98.5 C 457.277,102.162 456.277,105.495 454.5,108.5C 454.723,104.838 455.723,101.505 457.5,98.5 Z"/></g>
<g><path style="opacity:1" fill="#9a2724" d="M 416.5,99.5 C 416.59,102.152 415.924,104.485 414.5,106.5C 414.41,103.848 415.076,101.515 416.5,99.5 Z"/></g>
<g><path style="opacity:1" fill="#952623" d="M 257.5,108.5 C 257.277,112.162 256.277,115.495 254.5,118.5C 254.723,114.838 255.723,111.505 257.5,108.5 Z"/></g>
<g><path style="opacity:1" fill="#4b1514" d="M 345.5,109.5 C 345.277,113.162 344.277,116.495 342.5,119.5C 342.723,115.838 343.723,112.505 345.5,109.5 Z"/></g>
<g><path style="opacity:1" fill="#561616" d="M 383.5,113.5 C 383.277,117.162 382.277,120.495 380.5,123.5C 380.723,119.838 381.723,116.505 383.5,113.5 Z"/></g>
<g><path style="opacity:1" fill="#afd9eb" d="M 62.5,117.5 C 62.5,118.5 62.5,119.5 62.5,120.5C 72.8333,120.5 83.1667,120.5 93.5,120.5C 83.0131,121.494 72.3464,121.828 61.5,121.5C 61.2322,119.901 61.5655,118.568 62.5,117.5 Z"/></g>
<g><path style="opacity:1" fill="#942523" d="M 312.5,117.5 C 312.323,121.708 310.99,125.374 308.5,128.5C 309.462,124.605 310.796,120.939 312.5,117.5 Z"/></g>
<g><path style="opacity:1" fill="#6dbadb" d="M 203.5,118.5 C 203.5,119.833 203.5,121.167 203.5,122.5C 199.298,122.817 195.298,122.483 191.5,121.5C 195.167,121.5 198.833,121.5 202.5,121.5C 202.263,120.209 202.596,119.209 203.5,118.5 Z"/></g>
<g><path style="opacity:1" fill="#270c0a" d="M 380.5,123.5 C 380.714,125.144 380.38,126.644 379.5,128C 388.827,128.5 398.161,128.666 407.5,128.5C 398.014,129.494 388.348,129.827 378.5,129.5C 378.595,127.214 379.262,125.214 380.5,123.5 Z"/></g>
</svg>
