<?xml version="1.0" encoding="UTF-8"?>
<!DOCTYPE svg PUBLIC "-//W3C//DTD SVG 1.1//EN" "http://www.w3.org/Graphics/SVG/1.1/DTD/svg11.dtd">
<svg xmlns="http://www.w3.org/2000/svg" version="1.1" width="500px" height="200px" style="shape-rendering:geometricPrecision; text-rendering:geometricPrecision; image-rendering:optimizeQuality; fill-rule:evenodd; clip-rule:evenodd" xmlns:xlink="http://www.w3.org/1999/xlink">
<g><path style="opacity:0.829" fill="#ef8f21" d="M 341.5,27.5 C 342.5,27.5 343.5,27.5 344.5,27.5C 346.816,37.9568 352.483,46.1234 361.5,52C 354.952,58.5948 350.619,66.4281 348.5,75.5C 344.467,74.3269 340.467,72.8269 336.5,71C 329.846,69.4656 323.18,69.1323 316.5,70C 322.304,64.4551 329.304,61.7884 337.5,62C 329.315,55.3152 321.982,47.8152 315.5,39.5C 325.548,40.623 335.215,43.623 344.5,48.5C 344.833,48.3333 345.167,48.1667 345.5,48C 343.683,46.2002 342.516,44.0336 342,41.5C 341.501,36.8452 341.334,32.1785 341.5,27.5 Z"/></g>
<g><path style="opacity:0.794" fill="#ef8f22" d="M 499.5,85.5 C 499.5,95.5 499.5,105.5 499.5,115.5C 484.253,158.975 453.587,177.808 407.5,172C 381.441,165.614 362.941,150.114 352,125.5C 341.07,88.9561 351.237,59.7894 382.5,38C 390.26,33.2888 398.593,29.9554 407.5,28C 454.069,22.1184 484.735,41.285 499.5,85.5 Z M 415.5,33.5 C 455.005,31.9786 480.505,49.9786 492,87.5C 496.088,121.734 482.588,146.234 451.5,161C 420.041,172.176 392.875,165.676 370,141.5C 349.333,113.833 349.333,86.1667 370,58.5C 382.28,44.7793 397.447,36.446 415.5,33.5 Z M 373.5,90.5 C 380.751,88.6199 385.418,91.1199 387.5,98C 387.248,100.809 385.915,102.809 383.5,104C 380.183,104.498 376.85,104.665 373.5,104.5C 373.5,99.8333 373.5,95.1667 373.5,90.5 Z M 441.5,96.5 C 444.384,101.107 446.717,106.107 448.5,111.5C 444.893,112.489 441.226,112.823 437.5,112.5C 438.833,107.167 440.167,101.833 441.5,96.5 Z"/></g>
<g><path style="opacity:0.898" fill="#ef8f21" d="M 434.5,42.5 C 448.735,40.8587 458.568,46.5254 464,59.5C 465.054,67.1153 461.721,71.1153 454,71.5C 440.293,71.0884 432.126,64.2551 429.5,51C 430.137,47.5369 431.803,44.7035 434.5,42.5 Z"/></g>
<g><path style="opacity:0.819" fill="#fefffe" d="M -0.5,83.5 C 6.17499,83.3337 12.8417,83.5004 19.5,84C 28.3172,87.1333 31.8172,93.2999 30,102.5C 27.9682,107.867 24.1348,111.033 18.5,112C 14.8484,112.499 11.1817,112.665 7.5,112.5C 7.66602,117.844 7.49935,123.177 7,128.5C 4.6194,129.435 2.1194,129.768 -0.5,129.5C -0.5,114.167 -0.5,98.8333 -0.5,83.5 Z M 7.5,90.5 C 11.2733,90.2633 14.9399,90.7633 18.5,92C 22.5,96 22.5,100 18.5,104C 14.8484,104.499 11.1817,104.665 7.5,104.5C 7.5,99.8333 7.5,95.1667 7.5,90.5 Z"/></g>
<g><path style="opacity:0.787" fill="#fefffe" d="M 34.5,83.5 C 41.8409,83.3337 49.1742,83.5003 56.5,84C 66.5302,88.7549 69.0302,96.2549 64,106.5C 62.238,109.268 59.738,110.768 56.5,111C 60.768,116.705 64.1013,122.872 66.5,129.5C 63.8127,129.664 61.146,129.497 58.5,129C 54.9574,123.414 51.2907,117.914 47.5,112.5C 46.3112,111.571 44.9778,111.238 43.5,111.5C 43.6661,117.176 43.4994,122.843 43,128.5C 40.2809,129.444 37.4475,129.777 34.5,129.5C 34.5,114.167 34.5,98.8333 34.5,83.5 Z M 43.5,91.5 C 47.1817,91.3347 50.8484,91.5014 54.5,92C 59.2676,95.7057 59.601,99.7057 55.5,104C 51.5138,104.499 47.5138,104.666 43.5,104.5C 43.5,100.167 43.5,95.8333 43.5,91.5 Z"/></g>
<g><path style="opacity:0.8" fill="#fefffe" d="M 124.5,83.5 C 137.62,81.0637 146.953,86.0637 152.5,98.5C 149.554,99.6548 146.554,99.8214 143.5,99C 136.929,90.0746 129.429,89.2413 121,96.5C 117.667,103.167 117.667,109.833 121,116.5C 126.883,121.875 133.383,122.708 140.5,119C 142.594,116.579 144.26,113.912 145.5,111C 139.843,110.501 134.176,110.334 128.5,110.5C 128.5,108.167 128.5,105.833 128.5,103.5C 136.528,103.169 144.528,103.502 152.5,104.5C 153.868,119.278 146.868,127.611 131.5,129.5C 117.319,128.151 109.652,120.318 108.5,106C 109.466,95.2279 114.799,87.7279 124.5,83.5 Z"/></g>
<g><path style="opacity:0.804" fill="#fefffe" d="M 244.5,83.5 C 255.5,83.5 266.5,83.5 277.5,83.5C 277.5,85.8333 277.5,88.1667 277.5,90.5C 273.5,90.5 269.5,90.5 265.5,90.5C 265.5,103.5 265.5,116.5 265.5,129.5C 262.5,129.5 259.5,129.5 256.5,129.5C 256.5,116.5 256.5,103.5 256.5,90.5C 252.5,90.5 248.5,90.5 244.5,90.5C 244.5,88.1667 244.5,85.8333 244.5,83.5 Z"/></g>
<g><path style="opacity:0.712" fill="#fefffe" d="M 279.5,83.5 C 282.448,83.2229 285.281,83.5562 288,84.5C 288.823,99.4079 288.657,114.241 287.5,129C 284.571,129.777 281.737,129.61 279,128.5C 278.184,113.426 278.351,98.4255 279.5,83.5 Z"/></g>
<g><path style="opacity:0.807" fill="#fefffe" d="M 307.5,83.5 C 318.257,81.4678 326.757,84.8011 333,93.5C 334.411,95.6504 335.245,97.9837 335.5,100.5C 332.482,100.665 329.482,100.498 326.5,100C 321.773,91.6407 315.107,89.6407 306.5,94C 301.278,100.036 300.111,106.869 303,114.5C 307.993,120.957 314.159,122.457 321.5,119C 323.414,117.587 324.747,115.753 325.5,113.5C 334.963,110.673 337.13,113.006 332,120.5C 323.249,129.916 313.082,131.75 301.5,126C 288.106,112.273 288.439,98.9395 302.5,86C 304.315,85.2432 305.981,84.4098 307.5,83.5 Z"/></g>
<g><path style="opacity:0.799" fill="#fefffe" d="M 364.5,83.5 C 372.585,83.0989 380.585,83.5989 388.5,85C 392.867,87.555 395.367,91.3884 396,96.5C 396.499,92.1794 396.666,87.8461 396.5,83.5C 399.833,83.5 403.167,83.5 406.5,83.5C 406.5,96.1667 406.5,108.833 406.5,121.5C 411.167,121.5 415.833,121.5 420.5,121.5C 420.5,124.167 420.5,126.833 420.5,129.5C 412.5,129.5 404.5,129.5 396.5,129.5C 396.666,119.494 396.5,109.494 396,99.5C 392.821,110.767 385.321,115.101 373.5,112.5C 373.5,118.167 373.5,123.833 373.5,129.5C 370.5,129.5 367.5,129.5 364.5,129.5C 364.5,114.167 364.5,98.8333 364.5,83.5 Z M 373.5,90.5 C 373.5,95.1667 373.5,99.8333 373.5,104.5C 376.85,104.665 380.183,104.498 383.5,104C 385.915,102.809 387.248,100.809 387.5,98C 385.418,91.1199 380.751,88.6199 373.5,90.5 Z"/></g>
<g><path style="opacity:0.827" fill="#fefffe" d="M 438.5,83.5 C 441.448,83.2229 444.281,83.5562 447,84.5C 452.333,98.5 457.667,112.5 463,126.5C 463.667,121.833 463.667,117.167 463,112.5C 458.422,103.01 453.589,93.6763 448.5,84.5C 451.784,83.343 455.118,83.1764 458.5,84C 461.794,90.0884 464.961,96.2551 468,102.5C 471.039,96.2551 474.206,90.0884 477.5,84C 480.554,83.1786 483.554,83.3452 486.5,84.5C 481.465,93.7092 476.632,103.043 472,112.5C 471.501,118.157 471.334,123.824 471.5,129.5C 465.794,129.829 460.128,129.495 454.5,128.5C 453.5,125.833 452.5,123.167 451.5,120.5C 445.863,119.337 440.196,119.17 434.5,120C 432.998,123.005 431.998,126.171 431.5,129.5C 428.167,129.5 424.833,129.5 421.5,129.5C 426.781,113.986 432.448,98.6528 438.5,83.5 Z M 441.5,96.5 C 440.167,101.833 438.833,107.167 437.5,112.5C 441.226,112.823 444.893,112.489 448.5,111.5C 446.717,106.107 444.384,101.107 441.5,96.5 Z"/></g>
<g><path style="opacity:0.802" fill="#fefffe" d="M 84.5,84.5 C 87.8333,84.5 91.1667,84.5 94.5,84.5C 98.9014,99.7042 103.901,114.704 109.5,129.5C 106.482,129.665 103.482,129.498 100.5,129C 99.3552,125.878 98.3552,122.711 97.5,119.5C 91.8236,119.334 86.1569,119.501 80.5,120C 79.3608,123.083 78.0275,126.083 76.5,129C 73.4459,129.821 70.4459,129.655 67.5,128.5C 73.5657,113.967 79.2324,99.2999 84.5,84.5 Z M 88.5,96.5 C 89.1174,96.6107 89.6174,96.944 90,97.5C 90.9632,102.525 92.4632,107.358 94.5,112C 90.7887,112.825 87.122,112.659 83.5,111.5C 85.4676,106.573 87.1343,101.573 88.5,96.5 Z"/></g>
<g><path style="opacity:0.787" fill="#fefffe" d="M 155.5,84.5 C 159.106,84.2108 162.606,84.5442 166,85.5C 170.333,95.8333 174.667,106.167 179,116.5C 183.657,106.028 187.824,95.3618 191.5,84.5C 195.167,84.5 198.833,84.5 202.5,84.5C 202.5,99.5 202.5,114.5 202.5,129.5C 199.5,129.5 196.5,129.5 193.5,129.5C 193.666,120.161 193.5,110.827 193,101.5C 190.284,110.985 186.784,120.151 182.5,129C 180.098,129.814 177.765,129.647 175.5,128.5C 171.723,119.946 168.223,111.28 165,102.5C 164.667,111.167 164.333,119.833 164,128.5C 161.333,129.833 158.667,129.833 156,128.5C 155.5,113.837 155.333,99.1705 155.5,84.5 Z"/></g>
<g><path style="opacity:0.803" fill="#fefffe" d="M 221.5,84.5 C 224.898,84.1796 228.232,84.513 231.5,85.5C 237.073,100.056 242.74,114.556 248.5,129C 245.5,129.667 242.5,129.667 239.5,129C 237.972,126.083 236.639,123.083 235.5,120C 229.804,119.17 224.137,119.337 218.5,120.5C 217.5,123.167 216.5,125.833 215.5,128.5C 212.216,129.657 208.882,129.824 205.5,129C 211.331,114.339 216.665,99.5058 221.5,84.5 Z M 226.5,95.5 C 228.664,100.646 230.664,105.979 232.5,111.5C 228.541,112.66 224.541,112.827 220.5,112C 222.994,106.684 224.994,101.184 226.5,95.5 Z"/></g>
</svg>
